# xmcd
#
# Track frame offsets: 
#        150
#        13712
#        34560
#        48782
#        62882
#        81930
#        95327
#        106570
#        119500
#        141737
#        164800
#        177165
#        200860
#
# Disc length: 2912 seconds
#
# Revision: 2
# Processed by: cddbd v1.5.2PL0 Copyright (c) Steve Scherf et al.
# Submitted via: ExactAudioCopyFreeDBPlugin 1.0
#
DISCID=b60b5e0d
DTITLE=Hans Theessink - Hard Road Blues
DYEAR=1994
DGENRE=Blues
TTITLE0=Big Bill's Guitar
TTITLE1=Hard Road Blues
TTITLE2=You Make Me Feel So Good
TTITLE3=Prison Blues
TTITLE4=Two Trains
TTITLE5=Blind Willie
TTITLE6=Sugar Babe
TTITLE7=Minnibelle
TTITLE8=Vicksburg Is My Home
TTITLE9=One Kind Favour
TTITLE10=Shotgun Blues
TTITLE11=Cypress Grove
TTITLE12=Sitting On Top Of The World
EXTD=
EXTT0=
EXTT1=
EXTT2=
EXTT3=
EXTT4=
EXTT5=
EXTT6=
EXTT7=
EXTT8=
EXTT9=
EXTT10=
EXTT11=
EXTT12=
PLAYORDER=
